<?xml version="1.0" encoding="UTF-8"?><svg id="Layer_2" xmlns="http://www.w3.org/2000/svg" xmlns:xlink="http://www.w3.org/1999/xlink" viewBox="0 0 382.24 141.81"><defs><style>.cls-1{fill:url(#Red_gradient);}.cls-1,.cls-2,.cls-3,.cls-4{stroke-width:0px;}.cls-2{fill:url(#Autumn_Crimson);}.cls-3{fill:#282828;}.cls-4{fill:url(#Autumn_Red_Orange);}</style><linearGradient id="Autumn_Crimson" x1="-.06" y1="140.63" x2="119.21" y2="21.36" gradientUnits="userSpaceOnUse"><stop offset="0" stop-color="#ad6767"/><stop offset=".01" stop-color="#ac6565"/><stop offset=".5" stop-color="#952e41"/><stop offset=".75" stop-color="#7a3142"/><stop offset="1" stop-color="#633443"/></linearGradient><linearGradient id="Autumn_Red_Orange" x1="111" y1="69.99" x2="178.39" y2="137.38" gradientUnits="userSpaceOnUse"><stop offset="0" stop-color="#e6977b"/><stop offset=".53" stop-color="#dc7354"/><stop offset=".72" stop-color="#d85f43"/><stop offset="1" stop-color="#d44830"/></linearGradient><linearGradient id="Red_gradient" x1="130.8" y1="53.23" x2="102.8" y2="123.73" gradientUnits="userSpaceOnUse"><stop offset="0" stop-color="#8d2f40"/><stop offset=".5" stop-color="#af293b"/><stop offset=".69" stop-color="#bf2438"/><stop offset="1" stop-color="#d71f36"/></linearGradient></defs><g id="Layer_1-2"><path class="cls-3" d="m215.17,49.43h51.56v9.68h-39.65v30.75h32.19v9.68h-32.19v41.09h-11.91V49.43Z"/><path class="cls-3" d="m279.38,49.17c0-4.58,3.53-8.11,8.11-8.11,4.32,0,7.85,3.53,7.85,8.11s-3.53,8.11-7.85,8.11c-4.58,0-8.11-3.53-8.11-8.11Zm1.96,19.76h11.91v71.71h-11.91v-71.71Z"/><path class="cls-3" d="m343.5,67.75c13.35,0,22.51,6.8,26.69,14.26v-13.09h12.04v71.71h-12.04v-13.35c-4.32,7.72-13.61,14.52-26.83,14.52-19.1,0-33.89-15.05-33.89-37.29s14.79-36.77,34.02-36.77Zm2.36,10.34c-13.09,0-24.21,9.55-24.21,26.43s11.12,26.83,24.21,26.83,24.34-9.81,24.34-26.69-11.25-26.56-24.34-26.56Z"/><path class="cls-2" d="m93.34,97.12c0-24.68,20.01-44.7,44.7-44.7.45,0,.89.02,1.33.03C131.25,22.25,103.68,0,70.91,0,31.74,0,0,31.75,0,70.91v70.91h70.91c13.92,0,26.89-4.03,37.84-10.95-9.43-8.19-15.4-20.27-15.4-33.74Z"/><path class="cls-4" d="m139.37,52.45c1.58,5.89,2.44,12.07,2.44,18.45,0,25.25-13.2,47.39-33.06,59.95,7.85,6.82,18.08,10.95,29.29,10.95h44.7v-44.7c0-24.23-19.29-43.96-43.37-44.66Z"/><path class="cls-1" d="m141.81,70.91c0-6.38-.86-12.57-2.44-18.45-.44-.01-.88-.03-1.33-.03-24.68,0-44.7,20.01-44.7,44.7,0,13.48,5.97,25.55,15.4,33.74,19.86-12.56,33.06-34.71,33.06-59.95Z"/></g></svg>